mtllib SasukeSword.mtl
g Part 3
usemtl 0.168627_0.160784_0.160784_0.000000_0.000000
o mesh0
v -1.12357 0.01905 -0.0708107 
v -1.12357 0.01651 -0.0733507 
v -1.12611 0.01651 -0.0708107 
vn -0.57735 0.57735 -0.57735 
vn -0.57735 0.57735 -0.57735 
vn -0.57735 0.57735 -0.57735 
f 1//1 2//2 3//3 
o mesh1
v -0.747651 0.01651 -0.0733507 
v -1.12357 0.01651 -0.0733507 
v -1.12357 0.01905 -0.0708107 
v -0.747651 0.01905 -0.0708107 
vn -0 0.707107 -0.707107 
vn -0 0.707107 -0.707107 
vn -0 0.707107 -0.707107 
vn -0 0.707107 -0.707107 
f 4//4 5//5 6//6 
f 6//6 7//7 4//4 
o mesh2
v -1.12357 0.01651 -0.0733507 
v -0.747651 0.01651 -0.0733507 
v -0.747651 -0.00381 -0.0733507 
v -1.12357 -0.00381 -0.0733507 
vn -0 -0 -1 
vn -0 -0 -1 
vn -0 -0 -1 
vn -0 -0 -1 
f 8//8 9//9 10//10 
f 10//10 11//11 8//8 
o mesh3
v -0.747651 0.01905 -0.0708107 
v -0.745111 0.01651 -0.0708107 
v -0.747651 0.01651 -0.0733507 
vn 0.57735 0.57735 -0.57735 
vn 0.57735 0.57735 -0.57735 
vn 0.57735 0.57735 -0.57735 
f 12//12 13//13 14//14 
o mesh4
v -0.747651 0.01905 -0.0708107 
v -1.12357 0.01905 -0.0708107 
v -1.12357 0.01905 -0.0377907 
v -0.747651 0.01905 -0.0377907 
vn -0 1 1.82123e-16 
vn -0 1 1.82123e-16 
vn -0 1 1.82123e-16 
vn -0 1 1.82123e-16 
f 15//15 16//16 17//17 
f 17//17 18//18 15//15 
o mesh5
v -0.745111 0.01651 -0.0708107 
v -0.747651 0.01905 -0.0708107 
v -0.747651 0.01905 -0.0377907 
v -0.745111 0.01651 -0.0352507 
vn 0.707107 0.707107 1.28781e-16 
vn 0.707107 0.707107 1.28781e-16 
vn 0.707107 0.707107 1.28781e-16 
vn 0.707107 0.707107 1.28781e-16 
f 19//19 20//20 21//21 
f 21//21 22//22 19//19 
o mesh6
v -0.747651 -0.00381 -0.0733507 
v -0.747651 0.01651 -0.0733507 
v -0.745111 0.01651 -0.0708107 
v -0.745111 -0.00381 -0.0708107 
vn 0.707107 -0 -0.707107 
vn 0.707107 -0 -0.707107 
vn 0.707107 -0 -0.707107 
vn 0.707107 -0 -0.707107 
f 23//23 24//24 25//25 
f 25//25 26//26 23//23 
o mesh7
v -0.747651 -0.00381 -0.0733507 
v -0.745111 -0.00381 -0.0708107 
v -0.747651 -0.00635 -0.0708107 
vn 0.57735 -0.57735 -0.57735 
vn 0.57735 -0.57735 -0.57735 
vn 0.57735 -0.57735 -0.57735 
f 27//27 28//28 29//29 
o mesh8
v -0.745111 0.01651 -0.0708107 
v -0.745111 0.01651 -0.0352507 
v -0.745111 -0.00381 -0.0352507 
v -0.745111 -0.00381 -0.0708107 
vn 1 -0 -0 
vn 1 -0 -0 
vn 1 -0 -0 
vn 1 -0 -0 
f 30//30 31//31 32//32 
f 32//32 33//33 30//30 
o mesh9
v -1.12357 0.01651 -0.0352507 
v -0.745111 0.01651 -0.0352507 
v -0.747651 0.01905 -0.0377907 
v -1.12357 0.01905 -0.0377907 
vn -8.65956e-17 0.707107 0.707107 
vn -8.65956e-17 0.707107 0.707107 
vn -8.65956e-17 0.707107 0.707107 
vn -8.65956e-17 0.707107 0.707107 
f 34//34 35//35 36//36 
f 36//36 37//37 34//34 
o mesh10
v -1.12357 0.01905 -0.0377907 
v -1.12357 0.01905 -0.0708107 
v -1.12611 0.01651 -0.0708107 
v -1.12611 0.01651 -0.0377907 
vn -0.707107 0.707107 1.28781e-16 
vn -0.707107 0.707107 1.28781e-16 
vn -0.707107 0.707107 1.28781e-16 
vn -0.707107 0.707107 1.28781e-16 
f 38//38 39//39 40//40 
f 40//40 41//41 38//38 
o mesh11
v -1.12611 -0.00381 -0.0708107 
v -1.12611 0.01651 -0.0708107 
v -1.12357 0.01651 -0.0733507 
v -1.12357 -0.00381 -0.0733507 
vn -0.707107 0 -0.707107 
vn -0.707107 0 -0.707107 
vn -0.707107 0 -0.707107 
vn -0.707107 0 -0.707107 
f 42//42 43//43 44//44 
f 44//44 45//45 42//42 
o mesh12
v -0.747651 -0.00635 -0.0708107 
v -1.12357 -0.00635 -0.0708107 
v -1.12357 -0.00381 -0.0733507 
v -0.747651 -0.00381 -0.0733507 
vn 0 -0.707107 -0.707107 
vn 0 -0.707107 -0.707107 
vn 0 -0.707107 -0.707107 
vn 0 -0.707107 -0.707107 
f 46//46 47//47 48//48 
f 48//48 49//49 46//46 
o mesh13
v -0.745111 -0.00381 -0.0708107 
v -0.745111 -0.00381 -0.0352507 
v -0.747651 -0.00635 -0.0377907 
v -0.747651 -0.00635 -0.0708107 
vn 0.707107 -0.707107 -1.28781e-16 
vn 0.707107 -0.707107 -1.28781e-16 
vn 0.707107 -0.707107 -1.28781e-16 
vn 0.707107 -0.707107 -1.28781e-16 
f 50//50 51//51 52//52 
f 52//52 53//53 50//50 
o mesh14
v -1.12357 -0.00381 -0.0352507 
v -0.745111 -0.00381 -0.0352507 
v -0.745111 0.01651 -0.0352507 
v -1.12357 0.01651 -0.0352507 
vn -1.22465e-16 -1.82123e-16 1 
vn -1.22465e-16 -1.82123e-16 1 
vn -1.22465e-16 -1.82123e-16 1 
vn -1.22465e-16 -1.82123e-16 1 
f 54//54 55//55 56//56 
f 56//56 57//57 54//54 
o mesh15
v -1.12357 0.01905 -0.0377907 
v -1.12611 0.01651 -0.0377907 
v -1.12357 0.01651 -0.0352507 
vn -0.57735 0.57735 0.57735 
vn -0.57735 0.57735 0.57735 
vn -0.57735 0.57735 0.57735 
f 58//58 59//59 60//60 
o mesh16
v -1.12611 0.01651 -0.0377907 
v -1.12611 0.01651 -0.0708107 
v -1.12611 -0.00381 -0.0708107 
v -1.12611 -0.00381 -0.0377907 
vn -1 0 0 
vn -1 0 0 
vn -1 0 0 
vn -1 0 0 
f 61//61 62//62 63//63 
f 63//63 64//64 61//61 
o mesh17
v -0.747651 -0.00635 -0.0708107 
v -0.747651 -0.00635 -0.0377907 
v -1.12357 -0.00635 -0.0377907 
v -1.12357 -0.00635 -0.0708107 
vn 0 -1 -1.82123e-16 
vn 0 -1 -1.82123e-16 
vn 0 -1 -1.82123e-16 
vn 0 -1 -1.82123e-16 
f 65//65 66//66 67//67 
f 67//67 68//68 65//65 
o mesh18
v -1.12611 -0.00381 -0.0708107 
v -1.12357 -0.00381 -0.0733507 
v -1.12357 -0.00635 -0.0708107 
vn -0.57735 -0.57735 -0.57735 
vn -0.57735 -0.57735 -0.57735 
vn -0.57735 -0.57735 -0.57735 
f 69//69 70//70 71//71 
o mesh19
v -1.12611 -0.00381 -0.0377907 
v -1.12611 -0.00381 -0.0708107 
v -1.12357 -0.00635 -0.0708107 
v -1.12357 -0.00635 -0.0377907 
vn -0.707107 -0.707107 -1.28781e-16 
vn -0.707107 -0.707107 -1.28781e-16 
vn -0.707107 -0.707107 -1.28781e-16 
vn -0.707107 -0.707107 -1.28781e-16 
f 72//72 73//73 74//74 
f 74//74 75//75 72//72 
o mesh20
v -1.12357 -0.00381 -0.0352507 
v -1.12357 0.01651 -0.0352507 
v -1.12611 0.01651 -0.0377907 
v -1.12611 -0.00381 -0.0377907 
vn -0.707107 -1.28781e-16 0.707107 
vn -0.707107 -1.28781e-16 0.707107 
vn -0.707107 -1.28781e-16 0.707107 
vn -0.707107 -1.28781e-16 0.707107 
f 76//76 77//77 78//78 
f 78//78 79//79 76//76 
o mesh21
v -1.12357 -0.00381 -0.0352507 
v -1.12357 -0.00635 -0.0377907 
v -0.747651 -0.00635 -0.0377907 
v -0.745111 -0.00381 -0.0352507 
vn -8.65956e-17 -0.707107 0.707107 
vn -8.65956e-17 -0.707107 0.707107 
vn -8.65956e-17 -0.707107 0.707107 
vn -8.65956e-17 -0.707107 0.707107 
f 80//80 81//81 82//82 
f 82//82 83//83 80//80 
o mesh22
v -1.12611 -0.00381 -0.0377907 
v -1.12357 -0.00635 -0.0377907 
v -1.12357 -0.00381 -0.0352507 
vn -0.57735 -0.57735 0.57735 
vn -0.57735 -0.57735 0.57735 
vn -0.57735 -0.57735 0.57735 
f 84//84 85//85 86//86 
g Part 4
o mesh23
v -1.12611 0.01651 -0.0327107 
v -1.12357 0.01905 -0.0327107 
v -1.12357 0.01651 -0.0352507 
vn -0.57735 0.57735 -0.57735 
vn -0.57735 0.57735 -0.57735 
vn -0.57735 0.57735 -0.57735 
f 87//87 88//88 89//89 
o mesh24
v -1.12611 0.01651 -0.0327107 
v -1.12357 0.01651 -0.0352507 
v -1.12357 -0.00381 -0.0352507 
v -1.12611 -0.00381 -0.0327107 
vn -0.707107 1.28781e-16 -0.707107 
vn -0.707107 1.28781e-16 -0.707107 
vn -0.707107 1.28781e-16 -0.707107 
vn -0.707107 1.28781e-16 -0.707107 
f 90//90 91//91 92//92 
f 92//92 93//93 90//90 
o mesh25
v -1.12357 0.01651 -0.0352507 
v -0.745111 0.01651 -0.0352507 
v -0.745111 -0.00381 -0.0352507 
v -1.12357 -0.00381 -0.0352507 
vn 1.22465e-16 1.82123e-16 -1 
vn 1.22465e-16 1.82123e-16 -1 
vn 1.22465e-16 1.82123e-16 -1 
vn 1.22465e-16 1.82123e-16 -1 
f 94//94 95//95 96//96 
f 96//96 97//97 94//94 
o mesh26
v -1.12357 -0.00635 -0.0327107 
v -1.12611 -0.00381 -0.0327107 
v -1.12357 -0.00381 -0.0352507 
vn -0.57735 -0.57735 -0.57735 
vn -0.57735 -0.57735 -0.57735 
vn -0.57735 -0.57735 -0.57735 
f 98//98 99//99 100//100 
o mesh27
v -1.12611 0.01651 0.000309301 
v -1.12611 0.01651 -0.0327107 
v -1.12611 -0.00381 -0.0327107 
v -1.12611 -0.00381 0.000309301 
vn -1 0 0 
vn -1 0 0 
vn -1 0 0 
vn -1 0 0 
f 101//101 102//102 103//103 
f 103//103 104//104 101//101 
o mesh28
v -1.12357 0.01905 0.000309301 
v -1.12357 0.01905 -0.0327107 
v -1.12611 0.01651 -0.0327107 
v -1.12611 0.01651 0.000309301 
vn -0.707107 0.707107 1.28781e-16 
vn -0.707107 0.707107 1.28781e-16 
vn -0.707107 0.707107 1.28781e-16 
vn -0.707107 0.707107 1.28781e-16 
f 105//105 106//106 107//107 
f 107//107 108//108 105//105 
o mesh29
v -1.12357 0.01651 -0.0352507 
v -1.12357 0.01905 -0.0327107 
v -0.747651 0.01905 -0.0327107 
v -0.745111 0.01651 -0.0352507 
vn 8.65956e-17 0.707107 -0.707107 
vn 8.65956e-17 0.707107 -0.707107 
vn 8.65956e-17 0.707107 -0.707107 
vn 8.65956e-17 0.707107 -0.707107 
f 109//109 110//110 111//111 
f 111//111 112//112 109//109 
o mesh30
v -1.12357 0.01905 0.000309301 
v -0.747651 0.01905 0.000309301 
v -0.747651 0.01905 -0.0327107 
v -1.12357 0.01905 -0.0327107 
vn -0 1 1.82123e-16 
vn -0 1 1.82123e-16 
vn -0 1 1.82123e-16 
vn -0 1 1.82123e-16 
f 113//113 114//114 115//115 
f 115//115 116//116 113//113 
o mesh31
v -1.12611 0.01651 0.000309301 
v -1.12357 0.01651 0.0028493 
v -1.12357 0.01905 0.000309301 
vn -0.57735 0.57735 0.57735 
vn -0.57735 0.57735 0.57735 
vn -0.57735 0.57735 0.57735 
f 117//117 118//118 119//119 
o mesh32
v -0.745111 0.01651 0.000309301 
v -0.745111 0.01651 -0.0352507 
v -0.747651 0.01905 -0.0327107 
v -0.747651 0.01905 0.000309301 
vn 0.707107 0.707107 1.28781e-16 
vn 0.707107 0.707107 1.28781e-16 
vn 0.707107 0.707107 1.28781e-16 
vn 0.707107 0.707107 1.28781e-16 
f 120//120 121//121 122//122 
f 122//122 123//123 120//120 
o mesh33
v -0.747651 0.01905 0.000309301 
v -1.12357 0.01905 0.000309301 
v -1.12357 0.01651 0.0028493 
v -0.747651 0.01651 0.0028493 
vn 0 0.707107 0.707107 
vn 0 0.707107 0.707107 
vn 0 0.707107 0.707107 
vn 0 0.707107 0.707107 
f 124//124 125//125 126//126 
f 126//126 127//127 124//124 
o mesh34
v -1.12357 -0.00381 0.0028493 
v -1.12357 0.01651 0.0028493 
v -1.12611 0.01651 0.000309301 
v -1.12611 -0.00381 0.000309301 
vn -0.707107 -0 0.707107 
vn -0.707107 -0 0.707107 
vn -0.707107 -0 0.707107 
vn -0.707107 -0 0.707107 
f 128//128 129//129 130//130 
f 130//130 131//131 128//128 
o mesh35
v -1.12611 -0.00381 -0.0327107 
v -1.12357 -0.00635 -0.0327107 
v -1.12357 -0.00635 0.000309301 
v -1.12611 -0.00381 0.000309301 
vn -0.707107 -0.707107 -1.28781e-16 
vn -0.707107 -0.707107 -1.28781e-16 
vn -0.707107 -0.707107 -1.28781e-16 
vn -0.707107 -0.707107 -1.28781e-16 
f 132//132 133//133 134//134 
f 134//134 135//135 132//132 
o mesh36
v -1.12357 -0.00381 -0.0352507 
v -0.745111 -0.00381 -0.0352507 
v -0.747651 -0.00635 -0.0327107 
v -1.12357 -0.00635 -0.0327107 
vn 8.65956e-17 -0.707107 -0.707107 
vn 8.65956e-17 -0.707107 -0.707107 
vn 8.65956e-17 -0.707107 -0.707107 
vn 8.65956e-17 -0.707107 -0.707107 
f 136//136 137//137 138//138 
f 138//138 139//139 136//136 
o mesh37
v -1.12357 -0.00635 0.000309301 
v -1.12357 -0.00635 -0.0327107 
v -0.747651 -0.00635 -0.0327107 
v -0.747651 -0.00635 0.000309301 
vn 0 -1 -1.82123e-16 
vn 0 -1 -1.82123e-16 
vn 0 -1 -1.82123e-16 
vn 0 -1 -1.82123e-16 
f 140//140 141//141 142//142 
f 142//142 143//143 140//140 
o mesh38
v -1.12611 -0.00381 0.000309301 
v -1.12357 -0.00635 0.000309301 
v -1.12357 -0.00381 0.0028493 
vn -0.57735 -0.57735 0.57735 
vn -0.57735 -0.57735 0.57735 
vn -0.57735 -0.57735 0.57735 
f 144//144 145//145 146//146 
o mesh39
v -0.745111 0.01651 -0.0352507 
v -0.745111 0.01651 0.000309301 
v -0.745111 -0.00381 0.000309301 
v -0.745111 -0.00381 -0.0352507 
vn 1 -0 -0 
vn 1 -0 -0 
vn 1 -0 -0 
vn 1 -0 -0 
f 147//147 148//148 149//149 
f 149//149 150//150 147//147 
o mesh40
v -0.747651 0.01651 0.0028493 
v -1.12357 0.01651 0.0028493 
v -1.12357 -0.00381 0.0028493 
v -0.747651 -0.00381 0.0028493 
vn 0 0 1 
vn 0 0 1 
vn 0 0 1 
vn 0 0 1 
f 151//151 152//152 153//153 
f 153//153 154//154 151//151 
o mesh41
v -0.747651 0.01905 0.000309301 
v -0.747651 0.01651 0.0028493 
v -0.745111 0.01651 0.000309301 
vn 0.57735 0.57735 0.57735 
vn 0.57735 0.57735 0.57735 
vn 0.57735 0.57735 0.57735 
f 155//155 156//156 157//157 
o mesh42
v -0.745111 -0.00381 0.000309301 
v -0.747651 -0.00635 0.000309301 
v -0.747651 -0.00635 -0.0327107 
v -0.745111 -0.00381 -0.0352507 
vn 0.707107 -0.707107 -1.28781e-16 
vn 0.707107 -0.707107 -1.28781e-16 
vn 0.707107 -0.707107 -1.28781e-16 
vn 0.707107 -0.707107 -1.28781e-16 
f 158//158 159//159 160//160 
f 160//160 161//161 158//158 
o mesh43
v -0.747651 -0.00381 0.0028493 
v -1.12357 -0.00381 0.0028493 
v -1.12357 -0.00635 0.000309301 
v -0.747651 -0.00635 0.000309301 
vn -0 -0.707107 0.707107 
vn -0 -0.707107 0.707107 
vn -0 -0.707107 0.707107 
vn -0 -0.707107 0.707107 
f 162//162 163//163 164//164 
f 164//164 165//165 162//162 
o mesh44
v -0.745111 -0.00381 0.000309301 
v -0.745111 0.01651 0.000309301 
v -0.747651 0.01651 0.0028493 
v -0.747651 -0.00381 0.0028493 
vn 0.707107 0 0.707107 
vn 0.707107 0 0.707107 
vn 0.707107 0 0.707107 
vn 0.707107 0 0.707107 
f 166//166 167//167 168//168 
f 168//168 169//169 166//166 
o mesh45
v -0.747651 -0.00635 0.000309301 
v -0.745111 -0.00381 0.000309301 
v -0.747651 -0.00381 0.0028493 
vn 0.57735 -0.57735 0.57735 
vn 0.57735 -0.57735 0.57735 
vn 0.57735 -0.57735 0.57735 
f 170//170 171//171 172//172 
g blade
usemtl 0.945098_0.945098_0.945098_0.000000_0.000000
o mesh46
v 0.424201 0.00635 -0.0606507 
v 0.424201 0.0127 -0.0289007 
v 0.430899 0.0126599 -0.0287803 
v 0.433916 0.00635 -0.0601851 
v 0.437652 0.0125385 -0.0284161 
v 0.443543 0.00635 -0.0587926 
v 0.444515 0.0123327 -0.0277988 
v 0.452992 0.00635 -0.056486 
v 0.451549 0.0120371 -0.026912 
v 0.462177 0.00635 -0.0532864 
v 0.458819 0.0116437 -0.0257317 
v 0.471014 0.00635 -0.049223 
v 0.466402 0.0111413 -0.0242245 
v 0.479423 0.00635 -0.0443333 
v 0.474387 0.0105148 -0.022345 
v 0.487325 0.00635 -0.0386619 
v 0.482882 0.00974402 -0.0200327 
v 0.494648 0.00635 -0.0322609 
v 0.492019 0.00880222 -0.0172074 
v 0.501326 0.00635 -0.0251889 
v 0.501967 0.00765341 -0.0137609 
v 0.512189 0.00635 -0.0098507 
v 0.507297 0.00635 -0.0175108 
vn 0 0.980581 -0.196116 
vn 0 0.980581 -0.196116 
vn 0.0187535 0.980581 -0.195217 
vn 0.0187535 0.980581 -0.195217 
vn 0.0373352 0.980581 -0.19253 
vn 0.0373352 0.980581 -0.19253 
vn 0.0555747 0.980581 -0.188077 
vn 0.0555747 0.980581 -0.188077 
vn 0.0733048 0.980581 -0.181901 
vn 0.0733048 0.980581 -0.181901 
vn 0.0903631 0.980581 -0.174058 
vn 0.0903631 0.980581 -0.174058 
vn 0.106593 0.980581 -0.164619 
vn 0.106593 0.980581 -0.164619 
vn 0.121846 0.980581 -0.153672 
vn 0.121846 0.980581 -0.153672 
vn 0.135983 0.980581 -0.141316 
vn 0.135983 0.980581 -0.141316 
vn 0.148873 0.980581 -0.127665 
vn 0.148873 0.980581 -0.127665 
vn 0.160399 0.980581 -0.112844 
vn 0.169842 0.980581 -0.0980581 
vn 0.160399 0.980581 -0.112844 
f 173//173 174//174 175//175 
f 176//176 175//175 177//177 
f 178//178 177//177 179//179 
f 180//180 179//179 181//181 
f 182//182 181//181 183//183 
f 184//184 183//183 185//185 
f 186//186 185//185 187//187 
f 188//188 187//187 189//189 
f 190//190 189//189 191//191 
f 192//192 191//191 193//193 
f 194//194 195//195 193//193 
f 193//193 195//195 192//192 
f 191//191 192//192 190//190 
f 189//189 190//190 188//188 
f 187//187 188//188 186//186 
f 185//185 186//186 184//184 
f 183//183 184//184 182//182 
f 181//181 182//182 180//180 
f 179//179 180//180 178//178 
f 177//177 178//178 176//176 
f 175//175 176//176 173//173 
o mesh47
v -0.707011 0.00635 -0.0606507 
v -0.707011 0.0127 -0.0289007 
v 0.424201 0.0127 -0.0289007 
v 0.424201 0.00635 -0.0606507 
vn -0 0.980581 -0.196116 
vn -0 0.980581 -0.196116 
vn -0 0.980581 -0.196116 
vn -0 0.980581 -0.196116 
f 196//196 197//197 198//198 
f 198//198 199//199 196//196 
o mesh48
v -0.707011 2.27682e-18 -0.0289007 
v -0.707011 0.00635 -0.0098507 
v -0.707011 0.0127 -0.0289007 
v -0.707011 0.00635 -0.0606507 
vn -1 0 0 
vn -1 0 0 
vn -1 0 0 
vn -1 0 0 
f 200//200 201//201 202//202 
f 202//202 203//203 200//200 
o mesh49
v -0.707011 0.00635 -0.0606507 
v 0.424201 0.00635 -0.0606507 
v 0.424201 0 -0.0289007 
v -0.707011 2.27682e-18 -0.0289007 
vn 0 -0.980581 -0.196116 
vn 0 -0.980581 -0.196116 
vn 0 -0.980581 -0.196116 
vn 0 -0.980581 -0.196116 
f 204//204 205//205 206//206 
f 206//206 207//207 204//204 
o mesh50
v 0.424201 0 -0.0289007 
v 0.430899 4.01262e-05 -0.0287803 
v 0.437652 0.000161525 -0.0284161 
v 0.444515 0.000367315 -0.0277988 
v 0.451549 0.000662904 -0.026912 
v 0.458819 0.00105632 -0.0257317 
v 0.466402 0.00155874 -0.0242245 
v 0.474387 0.00218525 -0.022345 
v 0.482882 0.00295598 -0.0200327 
v 0.492019 0.00389778 -0.0172074 
v 0.501967 0.00504659 -0.0137609 
v -0.707011 0.00635 -0.0098507 
v -0.707011 2.27682e-18 -0.0289007 
v 0.512189 0.00635 -0.0098507 
vn -3.86949e-17 -0.948683 0.316228 
vn -3.86949e-17 -0.948683 0.316228 
vn -3.86949e-17 -0.948683 0.316228 
vn -3.86949e-17 -0.948683 0.316228 
vn -3.86949e-17 -0.948683 0.316228 
vn -3.86949e-17 -0.948683 0.316228 
vn -3.86949e-17 -0.948683 0.316228 
vn -3.86949e-17 -0.948683 0.316228 
vn -3.86949e-17 -0.948683 0.316228 
vn -3.86949e-17 -0.948683 0.316228 
vn -3.86949e-17 -0.948683 0.316228 
vn -3.86949e-17 -0.948683 0.316228 
vn -3.86949e-17 -0.948683 0.316228 
vn -3.86949e-17 -0.948683 0.316228 
f 208//208 209//209 210//210 
f 210//210 211//211 208//208 
f 211//211 212//212 208//208 
f 212//212 213//213 208//208 
f 213//213 214//214 208//208 
f 214//214 215//215 208//208 
f 215//215 216//216 208//208 
f 216//216 217//217 208//208 
f 217//217 218//218 208//208 
f 219//219 220//220 208//208 
f 208//208 221//221 219//219 
f 218//218 221//221 208//208 
o mesh51
v 0.424201 0.0127 -0.0289007 
v 0.444515 0.0123327 -0.0277988 
v 0.437652 0.0125385 -0.0284161 
v 0.451549 0.0120371 -0.026912 
v 0.458819 0.0116437 -0.0257317 
v 0.466402 0.0111413 -0.0242245 
v 0.474387 0.0105148 -0.022345 
v 0.482882 0.00974402 -0.0200327 
v 0.492019 0.00880222 -0.0172074 
v 0.501967 0.00765341 -0.0137609 
v -0.707011 0.00635 -0.0098507 
v 0.512189 0.00635 -0.0098507 
v 0.430899 0.0126599 -0.0287803 
v -0.707011 0.0127 -0.0289007 
vn -3.86949e-17 0.948683 0.316228 
vn -3.86949e-17 0.948683 0.316228 
vn -3.86949e-17 0.948683 0.316228 
vn -3.86949e-17 0.948683 0.316228 
vn -3.86949e-17 0.948683 0.316228 
vn -3.86949e-17 0.948683 0.316228 
vn -3.86949e-17 0.948683 0.316228 
vn -3.86949e-17 0.948683 0.316228 
vn -3.86949e-17 0.948683 0.316228 
vn -3.86949e-17 0.948683 0.316228 
vn -3.86949e-17 0.948683 0.316228 
vn -3.86949e-17 0.948683 0.316228 
vn -3.86949e-17 0.948683 0.316228 
vn -3.86949e-17 0.948683 0.316228 
f 222//222 223//223 224//224 
f 222//222 225//225 223//223 
f 222//222 226//226 225//225 
f 222//222 227//227 226//226 
f 222//222 228//228 227//227 
f 222//222 229//229 228//228 
f 222//222 230//230 229//229 
f 222//222 231//231 230//230 
f 232//232 233//233 222//222 
f 222//222 233//233 231//231 
f 224//224 234//234 222//222 
f 222//222 235//235 232//232 
o mesh52
v 0.501326 0.00635 -0.0251889 
v 0.507297 0.00635 -0.0175108 
v 0.501967 0.00504659 -0.0137609 
v 0.494648 0.00635 -0.0322609 
v 0.492019 0.00389778 -0.0172074 
v 0.487325 0.00635 -0.0386619 
v 0.482882 0.00295598 -0.0200327 
v 0.479423 0.00635 -0.0443333 
v 0.474387 0.00218525 -0.022345 
v 0.471014 0.00635 -0.049223 
v 0.466402 0.00155874 -0.0242245 
v 0.462177 0.00635 -0.0532864 
v 0.458819 0.00105632 -0.0257317 
v 0.452992 0.00635 -0.056486 
v 0.451549 0.000662904 -0.026912 
v 0.443543 0.00635 -0.0587926 
v 0.444515 0.000367315 -0.0277988 
v 0.433916 0.00635 -0.0601851 
v 0.437652 0.000161525 -0.0284161 
v 0.424201 0.00635 -0.0606507 
v 0.430899 4.01262e-05 -0.0287803 
v 0.424201 0 -0.0289007 
v 0.512189 0.00635 -0.0098507 
vn 0.148873 -0.980581 -0.127665 
vn 0.160399 -0.980581 -0.112844 
vn 0.160399 -0.980581 -0.112844 
vn 0.135983 -0.980581 -0.141316 
vn 0.148873 -0.980581 -0.127665 
vn 0.121846 -0.980581 -0.153672 
vn 0.135983 -0.980581 -0.141316 
vn 0.106593 -0.980581 -0.164619 
vn 0.121846 -0.980581 -0.153672 
vn 0.0903631 -0.980581 -0.174058 
vn 0.106593 -0.980581 -0.164619 
vn 0.0733048 -0.980581 -0.181901 
vn 0.0903631 -0.980581 -0.174058 
vn 0.0555747 -0.980581 -0.188077 
vn 0.0733048 -0.980581 -0.181901 
vn 0.0373352 -0.980581 -0.19253 
vn 0.0555747 -0.980581 -0.188077 
vn 0.0187535 -0.980581 -0.195217 
vn 0.0373352 -0.980581 -0.19253 
vn -4.85723e-16 -0.980581 -0.196116 
vn 0.0187535 -0.980581 -0.195217 
vn -4.85723e-16 -0.980581 -0.196116 
vn 0.169842 -0.980581 -0.0980581 
f 236//236 237//237 238//238 
f 239//239 236//236 240//240 
f 241//241 239//239 242//242 
f 243//243 241//241 244//244 
f 245//245 243//243 246//246 
f 247//247 245//245 248//248 
f 249//249 247//247 250//250 
f 251//251 249//249 252//252 
f 253//253 251//251 254//254 
f 255//255 253//253 256//256 
f 256//256 257//257 255//255 
f 254//254 256//256 253//253 
f 252//252 254//254 251//251 
f 250//250 252//252 249//249 
f 248//248 250//250 247//247 
f 246//246 248//248 245//245 
f 244//244 246//246 243//243 
f 242//242 244//244 241//241 
f 240//240 242//242 239//239 
f 238//238 240//240 236//236 
f 238//238 237//237 258//258 
g Part 2
usemtl 0.168627_0.160784_0.160784_0.000000_0.000000
o mesh53
v -0.707011 0.0127 -0.0606688 
v -0.707011 0.0127 -0.0098507 
v -0.707011 0 -0.0098507 
v -0.707011 1.73472e-18 -0.0606688 
vn 1 -0 -0 
vn 1 -0 -0 
vn 1 -0 -0 
vn 1 -0 -0 
f 259//259 260//260 261//261 
f 261//261 262//262 259//259 
o mesh54
v -0.707011 0.0127 -0.0606688 
v -0.745111 0.0127 -0.0606688 
v -0.745111 0.0127 -0.0098507 
v -0.707011 0.0127 -0.0098507 
vn -0 1 -0 
vn -0 1 -0 
vn -0 1 -0 
vn -0 1 -0 
f 263//263 264//264 265//265 
f 265//265 266//266 263//263 
o mesh55
v -0.745111 1.73472e-18 -0.0606688 
v -0.707011 1.73472e-18 -0.0606688 
v -0.707011 0 -0.0098507 
v -0.745111 0 -0.0098507 
vn 0 -1 0 
vn 0 -1 0 
vn 0 -1 0 
vn 0 -1 0 
f 267//267 268//268 269//269 
f 269//269 270//270 267//267 
o mesh56
v -0.745111 0.0127 -0.0606688 
v -0.707011 0.0127 -0.0606688 
v -0.707011 1.73472e-18 -0.0606688 
v -0.745111 1.73472e-18 -0.0606688 
vn -0 -0 -1 
vn -0 -0 -1 
vn -0 -0 -1 
vn -0 -0 -1 
f 271//271 272//272 273//273 
f 273//273 274//274 271//271 
o mesh57
v -0.745111 1.73472e-18 -0.0606688 
v -0.745111 0 -0.0098507 
v -0.745111 0.0127 -0.0098507 
v -0.745111 0.0127 -0.0606688 
vn -1 -0 -0 
vn -1 -0 -0 
vn -1 -0 -0 
vn -1 -0 -0 
f 275//275 276//276 277//277 
f 277//277 278//278 275//275 
o mesh58
v -0.745111 0 -0.0098507 
v -0.707011 0 -0.0098507 
v -0.707011 0.0127 -0.0098507 
v -0.745111 0.0127 -0.0098507 
vn -1.22364e-16 0 1 
vn -1.22364e-16 0 1 
vn -1.22364e-16 0 1 
vn -1.22364e-16 0 1 
f 279//279 280//280 281//281 
f 281//281 282//282 279//279 
