mtllib Collider.mtl
g Collider
usemtl 0.945098_0.945098_0.945098_0.000000_0.000000
o mesh0
v 0.424201 0.00635 -0.0606507 
v 0.424201 0.0127 -0.0289007 
v 0.430899 0.0126599 -0.0287803 
v 0.433916 0.00635 -0.0601851 
v 0.437652 0.0125385 -0.0284161 
v 0.443543 0.00635 -0.0587926 
v 0.444515 0.0123327 -0.0277988 
v 0.452992 0.00635 -0.056486 
v 0.451549 0.0120371 -0.026912 
v 0.462177 0.00635 -0.0532864 
v 0.458819 0.0116437 -0.0257317 
v 0.471014 0.00635 -0.049223 
v 0.466402 0.0111413 -0.0242245 
v 0.479423 0.00635 -0.0443333 
v 0.474387 0.0105148 -0.022345 
v 0.487325 0.00635 -0.0386619 
v 0.482882 0.00974402 -0.0200327 
v 0.494648 0.00635 -0.0322609 
v 0.492019 0.00880222 -0.0172074 
v 0.501326 0.00635 -0.0251889 
v 0.501967 0.00765341 -0.0137609 
v 0.512189 0.00635 -0.0098507 
v 0.507297 0.00635 -0.0175108 
vn 0 0.980581 -0.196116 
vn 0 0.980581 -0.196116 
vn 0.0187535 0.980581 -0.195217 
vn 0.0187535 0.980581 -0.195217 
vn 0.0373352 0.980581 -0.19253 
vn 0.0373352 0.980581 -0.19253 
vn 0.0555747 0.980581 -0.188077 
vn 0.0555747 0.980581 -0.188077 
vn 0.0733048 0.980581 -0.181901 
vn 0.0733048 0.980581 -0.181901 
vn 0.0903631 0.980581 -0.174058 
vn 0.0903631 0.980581 -0.174058 
vn 0.106593 0.980581 -0.164619 
vn 0.106593 0.980581 -0.164619 
vn 0.121846 0.980581 -0.153672 
vn 0.121846 0.980581 -0.153672 
vn 0.135983 0.980581 -0.141316 
vn 0.135983 0.980581 -0.141316 
vn 0.148873 0.980581 -0.127665 
vn 0.148873 0.980581 -0.127665 
vn 0.160399 0.980581 -0.112844 
vn 0.169842 0.980581 -0.0980581 
vn 0.160399 0.980581 -0.112844 
f 1//1 2//2 3//3 
f 4//4 3//3 5//5 
f 6//6 5//5 7//7 
f 8//8 7//7 9//9 
f 10//10 9//9 11//11 
f 12//12 11//11 13//13 
f 14//14 13//13 15//15 
f 16//16 15//15 17//17 
f 18//18 17//17 19//19 
f 20//20 19//19 21//21 
f 22//22 23//23 21//21 
f 21//21 23//23 20//20 
f 19//19 20//20 18//18 
f 17//17 18//18 16//16 
f 15//15 16//16 14//14 
f 13//13 14//14 12//12 
f 11//11 12//12 10//10 
f 9//9 10//10 8//8 
f 7//7 8//8 6//6 
f 5//5 6//6 4//4 
f 3//3 4//4 1//1 
o mesh1
v -0.707011 0.00635 -0.0606507 
v -0.707011 0.0127 -0.0289007 
v 0.424201 0.0127 -0.0289007 
v 0.424201 0.00635 -0.0606507 
vn -0 0.980581 -0.196116 
vn -0 0.980581 -0.196116 
vn -0 0.980581 -0.196116 
vn -0 0.980581 -0.196116 
f 24//24 25//25 26//26 
f 26//26 27//27 24//24 
o mesh2
v -0.707011 0.00635 -0.0606507 
v 0.424201 0.00635 -0.0606507 
v 0.424201 0 -0.0289007 
v -0.707011 1.73472e-18 -0.0289007 
vn 0 -0.980581 -0.196116 
vn 0 -0.980581 -0.196116 
vn 0 -0.980581 -0.196116 
vn 0 -0.980581 -0.196116 
f 28//28 29//29 30//30 
f 30//30 31//31 28//28 
o mesh3
v 0.501326 0.00635 -0.0251889 
v 0.507297 0.00635 -0.0175108 
v 0.501967 0.00504659 -0.0137609 
v 0.494648 0.00635 -0.0322609 
v 0.492019 0.00389778 -0.0172074 
v 0.487325 0.00635 -0.0386619 
v 0.482882 0.00295598 -0.0200327 
v 0.479423 0.00635 -0.0443333 
v 0.474387 0.00218525 -0.022345 
v 0.471014 0.00635 -0.049223 
v 0.466402 0.00155874 -0.0242245 
v 0.462177 0.00635 -0.0532864 
v 0.458819 0.00105632 -0.0257317 
v 0.452992 0.00635 -0.056486 
v 0.451549 0.000662904 -0.026912 
v 0.443543 0.00635 -0.0587926 
v 0.444515 0.000367315 -0.0277988 
v 0.433916 0.00635 -0.0601851 
v 0.437652 0.000161525 -0.0284161 
v 0.424201 0.00635 -0.0606507 
v 0.430899 4.01262e-05 -0.0287803 
v 0.424201 0 -0.0289007 
v 0.512189 0.00635 -0.0098507 
vn 0.148873 -0.980581 -0.127665 
vn 0.160399 -0.980581 -0.112844 
vn 0.160399 -0.980581 -0.112844 
vn 0.135983 -0.980581 -0.141316 
vn 0.148873 -0.980581 -0.127665 
vn 0.121846 -0.980581 -0.153672 
vn 0.135983 -0.980581 -0.141316 
vn 0.106593 -0.980581 -0.164619 
vn 0.121846 -0.980581 -0.153672 
vn 0.0903631 -0.980581 -0.174058 
vn 0.106593 -0.980581 -0.164619 
vn 0.0733048 -0.980581 -0.181901 
vn 0.0903631 -0.980581 -0.174058 
vn 0.0555747 -0.980581 -0.188077 
vn 0.0733048 -0.980581 -0.181901 
vn 0.0373352 -0.980581 -0.19253 
vn 0.0555747 -0.980581 -0.188077 
vn 0.0187535 -0.980581 -0.195217 
vn 0.0373352 -0.980581 -0.19253 
vn -4.85723e-16 -0.980581 -0.196116 
vn 0.0187535 -0.980581 -0.195217 
vn -4.85723e-16 -0.980581 -0.196116 
vn 0.169842 -0.980581 -0.0980581 
f 32//32 33//33 34//34 
f 35//35 32//32 36//36 
f 37//37 35//35 38//38 
f 39//39 37//37 40//40 
f 41//41 39//39 42//42 
f 43//43 41//41 44//44 
f 45//45 43//43 46//46 
f 47//47 45//45 48//48 
f 49//49 47//47 50//50 
f 51//51 49//49 52//52 
f 52//52 53//53 51//51 
f 50//50 52//52 49//49 
f 48//48 50//50 47//47 
f 46//46 48//48 45//45 
f 44//44 46//46 43//43 
f 42//42 44//44 41//41 
f 40//40 42//42 39//39 
f 38//38 40//40 37//37 
f 36//36 38//38 35//35 
f 34//34 36//36 32//32 
f 34//34 33//33 54//54 
o mesh4
v 0.424201 0 -0.0289007 
v 0.430899 4.01262e-05 -0.0287803 
v 0.437652 0.000161525 -0.0284161 
v 0.444515 0.000367315 -0.0277988 
v 0.451549 0.000662904 -0.026912 
v 0.458819 0.00105632 -0.0257317 
v 0.466402 0.00155874 -0.0242245 
v 0.474387 0.00218525 -0.022345 
v 0.482882 0.00295598 -0.0200327 
v 0.492019 0.00389778 -0.0172074 
v 0.501967 0.00504659 -0.0137609 
v -0.707011 0.00635 -0.0098507 
v -0.707011 1.73472e-18 -0.0289007 
v 0.512189 0.00635 -0.0098507 
vn -3.86949e-17 -0.948683 0.316228 
vn -3.86949e-17 -0.948683 0.316228 
vn -3.86949e-17 -0.948683 0.316228 
vn -3.86949e-17 -0.948683 0.316228 
vn -3.86949e-17 -0.948683 0.316228 
vn -3.86949e-17 -0.948683 0.316228 
vn -3.86949e-17 -0.948683 0.316228 
vn -3.86949e-17 -0.948683 0.316228 
vn -3.86949e-17 -0.948683 0.316228 
vn -3.86949e-17 -0.948683 0.316228 
vn -3.86949e-17 -0.948683 0.316228 
vn -3.86949e-17 -0.948683 0.316228 
vn -3.86949e-17 -0.948683 0.316228 
vn -3.86949e-17 -0.948683 0.316228 
f 55//55 56//56 57//57 
f 57//57 58//58 55//55 
f 58//58 59//59 55//55 
f 59//59 60//60 55//55 
f 60//60 61//61 55//55 
f 61//61 62//62 55//55 
f 62//62 63//63 55//55 
f 63//63 64//64 55//55 
f 64//64 65//65 55//55 
f 66//66 67//67 55//55 
f 55//55 68//68 66//66 
f 65//65 68//68 55//55 
o mesh5
v 0.424201 0.0127 -0.0289007 
v 0.444515 0.0123327 -0.0277988 
v 0.437652 0.0125385 -0.0284161 
v 0.451549 0.0120371 -0.026912 
v 0.458819 0.0116437 -0.0257317 
v 0.466402 0.0111413 -0.0242245 
v 0.474387 0.0105148 -0.022345 
v 0.482882 0.00974402 -0.0200327 
v 0.492019 0.00880222 -0.0172074 
v 0.501967 0.00765341 -0.0137609 
v -0.707011 0.00635 -0.0098507 
v 0.512189 0.00635 -0.0098507 
v 0.430899 0.0126599 -0.0287803 
v -0.707011 0.0127 -0.0289007 
vn -3.86949e-17 0.948683 0.316228 
vn -3.86949e-17 0.948683 0.316228 
vn -3.86949e-17 0.948683 0.316228 
vn -3.86949e-17 0.948683 0.316228 
vn -3.86949e-17 0.948683 0.316228 
vn -3.86949e-17 0.948683 0.316228 
vn -3.86949e-17 0.948683 0.316228 
vn -3.86949e-17 0.948683 0.316228 
vn -3.86949e-17 0.948683 0.316228 
vn -3.86949e-17 0.948683 0.316228 
vn -3.86949e-17 0.948683 0.316228 
vn -3.86949e-17 0.948683 0.316228 
vn -3.86949e-17 0.948683 0.316228 
vn -3.86949e-17 0.948683 0.316228 
f 69//69 70//70 71//71 
f 69//69 72//72 70//70 
f 69//69 73//73 72//72 
f 69//69 74//74 73//73 
f 69//69 75//75 74//74 
f 69//69 76//76 75//75 
f 69//69 77//77 76//76 
f 69//69 78//78 77//77 
f 79//79 80//80 69//69 
f 69//69 80//80 78//78 
f 71//71 81//81 69//69 
f 69//69 82//82 79//79 
o mesh6
v -0.707011 1.73472e-18 -0.0289007 
v -0.707011 0.00635 -0.0098507 
v -0.707011 0 -0.0098507 
vn 1 -0 -0 
vn 1 -0 -0 
vn 1 -0 -0 
f 83//83 84//84 85//85 
o mesh7
v -0.707011 0.00635 -0.0098507 
v -0.707011 0.0127 -0.0289007 
v -0.707011 0.0127 -0.0098507 
vn 1 -0 -0 
vn 1 -0 -0 
vn 1 -0 -0 
f 86//86 87//87 88//88 
o mesh8
v -0.707011 1.73472e-18 -0.0606688 
v -0.707011 0.0127 -0.0606688 
v -0.707011 0.00635 -0.0606507 
v -0.707011 0.0127 -0.0289007 
v -0.707011 1.73472e-18 -0.0289007 
vn 1 -0 -0 
vn 1 -0 -0 
vn 1 -0 -0 
vn 1 -0 -0 
vn 1 -0 -0 
f 89//89 90//90 91//91 
f 90//90 92//92 91//91 
f 91//91 93//93 89//89 
o mesh9
v -0.745111 0.0127 -0.0606688 
v -0.745111 0.0127 -0.0098507 
v -0.707011 0.0127 -0.0289007 
v -0.707011 0.0127 -0.0098507 
v -0.707011 0.0127 -0.0606688 
vn -0 1 -0 
vn -0 1 -0 
vn -0 1 -0 
vn -0 1 -0 
vn -0 1 -0 
f 94//94 95//95 96//96 
f 95//95 97//97 96//96 
f 96//96 98//98 94//94 
o mesh10
v -0.745111 1.73472e-18 -0.0606688 
v -0.707011 1.73472e-18 -0.0606688 
v -0.707011 1.73472e-18 -0.0289007 
v -0.745111 0 -0.0098507 
v -0.707011 0 -0.0098507 
vn 0 -1 0 
vn 0 -1 0 
vn 0 -1 0 
vn 0 -1 0 
vn 0 -1 0 
f 99//99 100//100 101//101 
f 101//101 102//102 99//99 
f 101//101 103//103 102//102 
o mesh11
v -0.745111 0.0127 -0.0098507 
v -0.745111 0 -0.0098507 
v -0.707011 0.00635 -0.0098507 
v -0.707011 0 -0.0098507 
v -0.707011 0.0127 -0.0098507 
vn -1.22364e-16 0 1 
vn -1.22364e-16 0 1 
vn -1.22364e-16 0 1 
vn -1.22364e-16 0 1 
vn -1.22364e-16 0 1 
f 104//104 105//105 106//106 
f 105//105 107//107 106//106 
f 106//106 108//108 104//104 
o mesh12
v -0.745111 0.0127 -0.0606688 
v -0.707011 0.0127 -0.0606688 
v -0.707011 1.73472e-18 -0.0606688 
v -0.745111 1.73472e-18 -0.0606688 
vn -0 -0 -1 
vn -0 -0 -1 
vn -0 -0 -1 
vn -0 -0 -1 
f 109//109 110//110 111//111 
f 111//111 112//112 109//109 
o mesh13
v -0.745111 0.0127 -0.0606688 
v -0.745111 0.01651 -0.0708107 
v -0.745111 0.01651 -0.0352507 
v -0.745111 1.73472e-18 -0.0606688 
v -0.745111 0 -0.0098507 
v -0.745111 -0.00381 -0.0352507 
v -0.745111 0.0127 -0.0098507 
v -0.745111 0.01651 0.000309301 
v -0.745111 -0.00381 0.000309301 
v -0.745111 -0.00381 -0.0708107 
vn 1 -0 -0 
vn 1 -0 -0 
vn 1 -0 -0 
vn 1 -0 -0 
vn 1 -0 -0 
vn 1 -0 -0 
vn 1 -0 -0 
vn 1 -0 -0 
vn 1 -0 -0 
vn 1 -0 -0 
f 113//113 114//114 115//115 
f 116//116 117//117 118//118 
f 115//115 119//119 113//113 
f 120//120 121//121 117//117 
f 117//117 121//121 118//118 
f 122//122 114//114 113//113 
f 117//117 119//119 120//120 
f 113//113 116//116 122//122 
f 118//118 122//122 116//116 
f 115//115 120//120 119//119 
o mesh14
v -0.745111 0.01651 -0.0708107 
v -0.747651 0.01905 -0.0708107 
v -0.747651 0.01905 -0.0377907 
v -0.745111 0.01651 -0.0352507 
vn 0.707107 0.707107 1.28781e-16 
vn 0.707107 0.707107 1.28781e-16 
vn 0.707107 0.707107 1.28781e-16 
vn 0.707107 0.707107 1.28781e-16 
f 123//123 124//124 125//125 
f 125//125 126//126 123//123 
o mesh15
v -0.747651 0.01905 -0.0708107 
v -0.745111 0.01651 -0.0708107 
v -0.747651 0.01651 -0.0733507 
vn 0.57735 0.57735 -0.57735 
vn 0.57735 0.57735 -0.57735 
vn 0.57735 0.57735 -0.57735 
f 127//127 128//128 129//129 
o mesh16
v -0.747651 0.01905 -0.0708107 
v -1.12357 0.01905 -0.0708107 
v -1.12357 0.01905 -0.0377907 
v -0.747651 0.01905 -0.0377907 
vn -0 1 1.82123e-16 
vn -0 1 1.82123e-16 
vn -0 1 1.82123e-16 
vn -0 1 1.82123e-16 
f 130//130 131//131 132//132 
f 132//132 133//133 130//130 
o mesh17
v -0.747651 0.01651 -0.0733507 
v -1.12357 0.01651 -0.0733507 
v -1.12357 0.01905 -0.0708107 
v -0.747651 0.01905 -0.0708107 
vn -0 0.707107 -0.707107 
vn -0 0.707107 -0.707107 
vn -0 0.707107 -0.707107 
vn -0 0.707107 -0.707107 
f 134//134 135//135 136//136 
f 136//136 137//137 134//134 
o mesh18
v -0.747651 -0.00381 -0.0733507 
v -0.747651 0.01651 -0.0733507 
v -0.745111 0.01651 -0.0708107 
v -0.745111 -0.00381 -0.0708107 
vn 0.707107 -0 -0.707107 
vn 0.707107 -0 -0.707107 
vn 0.707107 -0 -0.707107 
vn 0.707107 -0 -0.707107 
f 138//138 139//139 140//140 
f 140//140 141//141 138//138 
o mesh19
v -1.12357 0.01905 -0.0708107 
v -1.12357 0.01651 -0.0733507 
v -1.12611 0.01651 -0.0708107 
vn -0.57735 0.57735 -0.57735 
vn -0.57735 0.57735 -0.57735 
vn -0.57735 0.57735 -0.57735 
f 142//142 143//143 144//144 
o mesh20
v -1.12357 0.01651 -0.0733507 
v -0.747651 0.01651 -0.0733507 
v -0.747651 -0.00381 -0.0733507 
v -1.12357 -0.00381 -0.0733507 
vn -0 -0 -1 
vn -0 -0 -1 
vn -0 -0 -1 
vn -0 -0 -1 
f 145//145 146//146 147//147 
f 147//147 148//148 145//145 
o mesh21
v -0.747651 -0.00381 -0.0733507 
v -0.745111 -0.00381 -0.0708107 
v -0.747651 -0.00635 -0.0708107 
vn 0.57735 -0.57735 -0.57735 
vn 0.57735 -0.57735 -0.57735 
vn 0.57735 -0.57735 -0.57735 
f 149//149 150//150 151//151 
o mesh22
v -1.12611 -0.00381 -0.0708107 
v -1.12611 0.01651 -0.0708107 
v -1.12357 0.01651 -0.0733507 
v -1.12357 -0.00381 -0.0733507 
vn -0.707107 0 -0.707107 
vn -0.707107 0 -0.707107 
vn -0.707107 0 -0.707107 
vn -0.707107 0 -0.707107 
f 152//152 153//153 154//154 
f 154//154 155//155 152//152 
o mesh23
v -1.12357 0.01905 -0.0377907 
v -1.12357 0.01905 -0.0708107 
v -1.12611 0.01651 -0.0708107 
v -1.12611 0.01651 -0.0377907 
vn -0.707107 0.707107 1.28781e-16 
vn -0.707107 0.707107 1.28781e-16 
vn -0.707107 0.707107 1.28781e-16 
vn -0.707107 0.707107 1.28781e-16 
f 156//156 157//157 158//158 
f 158//158 159//159 156//156 
o mesh24
v -1.12357 0.01651 -0.0352507 
v -0.745111 0.01651 -0.0352507 
v -0.747651 0.01905 -0.0377907 
v -1.12357 0.01905 -0.0377907 
vn -8.65956e-17 0.707107 0.707107 
vn -8.65956e-17 0.707107 0.707107 
vn -8.65956e-17 0.707107 0.707107 
vn -8.65956e-17 0.707107 0.707107 
f 160//160 161//161 162//162 
f 162//162 163//163 160//160 
o mesh25
v -0.747651 -0.00635 -0.0708107 
v -1.12357 -0.00635 -0.0708107 
v -1.12357 -0.00381 -0.0733507 
v -0.747651 -0.00381 -0.0733507 
vn 0 -0.707107 -0.707107 
vn 0 -0.707107 -0.707107 
vn 0 -0.707107 -0.707107 
vn 0 -0.707107 -0.707107 
f 164//164 165//165 166//166 
f 166//166 167//167 164//164 
o mesh26
v -0.745111 -0.00381 -0.0708107 
v -0.745111 -0.00381 -0.0352507 
v -0.747651 -0.00635 -0.0377907 
v -0.747651 -0.00635 -0.0708107 
vn 0.707107 -0.707107 -1.28781e-16 
vn 0.707107 -0.707107 -1.28781e-16 
vn 0.707107 -0.707107 -1.28781e-16 
vn 0.707107 -0.707107 -1.28781e-16 
f 168//168 169//169 170//170 
f 170//170 171//171 168//168 
o mesh27
v -0.747651 -0.00635 -0.0708107 
v -0.747651 -0.00635 -0.0377907 
v -1.12357 -0.00635 -0.0377907 
v -1.12357 -0.00635 -0.0708107 
vn 0 -1 -1.82123e-16 
vn 0 -1 -1.82123e-16 
vn 0 -1 -1.82123e-16 
vn 0 -1 -1.82123e-16 
f 172//172 173//173 174//174 
f 174//174 175//175 172//172 
o mesh28
v -1.12611 -0.00381 -0.0708107 
v -1.12357 -0.00381 -0.0733507 
v -1.12357 -0.00635 -0.0708107 
vn -0.57735 -0.57735 -0.57735 
vn -0.57735 -0.57735 -0.57735 
vn -0.57735 -0.57735 -0.57735 
f 176//176 177//177 178//178 
o mesh29
v -1.12611 0.01651 -0.0377907 
v -1.12611 0.01651 -0.0708107 
v -1.12611 -0.00381 -0.0708107 
v -1.12611 -0.00381 -0.0377907 
vn -1 0 0 
vn -1 0 0 
vn -1 0 0 
vn -1 0 0 
f 179//179 180//180 181//181 
f 181//181 182//182 179//179 
o mesh30
v -1.12357 0.01905 -0.0377907 
v -1.12611 0.01651 -0.0377907 
v -1.12357 0.01651 -0.0352507 
vn -0.57735 0.57735 0.57735 
vn -0.57735 0.57735 0.57735 
vn -0.57735 0.57735 0.57735 
f 183//183 184//184 185//185 
o mesh31
v -1.12611 -0.00381 -0.0377907 
v -1.12611 -0.00381 -0.0708107 
v -1.12357 -0.00635 -0.0708107 
v -1.12357 -0.00635 -0.0377907 
vn -0.707107 -0.707107 -1.28781e-16 
vn -0.707107 -0.707107 -1.28781e-16 
vn -0.707107 -0.707107 -1.28781e-16 
vn -0.707107 -0.707107 -1.28781e-16 
f 186//186 187//187 188//188 
f 188//188 189//189 186//186 
o mesh32
v -1.12611 -0.00381 -0.0377907 
v -1.12357 -0.00635 -0.0377907 
v -1.12357 -0.00381 -0.0352507 
vn -0.57735 -0.57735 0.57735 
vn -0.57735 -0.57735 0.57735 
vn -0.57735 -0.57735 0.57735 
f 190//190 191//191 192//192 
o mesh33
v -1.12357 -0.00381 -0.0352507 
v -1.12357 0.01651 -0.0352507 
v -1.12611 0.01651 -0.0377907 
v -1.12611 -0.00381 -0.0377907 
vn -0.707107 -1.28781e-16 0.707107 
vn -0.707107 -1.28781e-16 0.707107 
vn -0.707107 -1.28781e-16 0.707107 
vn -0.707107 -1.28781e-16 0.707107 
f 193//193 194//194 195//195 
f 195//195 196//196 193//193 
o mesh34
v -1.12357 -0.00381 -0.0352507 
v -1.12357 -0.00635 -0.0377907 
v -0.747651 -0.00635 -0.0377907 
v -0.745111 -0.00381 -0.0352507 
vn -8.65956e-17 -0.707107 0.707107 
vn -8.65956e-17 -0.707107 0.707107 
vn -8.65956e-17 -0.707107 0.707107 
vn -8.65956e-17 -0.707107 0.707107 
f 197//197 198//198 199//199 
f 199//199 200//200 197//197 
o mesh35
v -1.12357 0.01651 -0.0352507 
v -1.12357 0.01905 -0.0327107 
v -0.747651 0.01905 -0.0327107 
v -0.745111 0.01651 -0.0352507 
vn 8.65956e-17 0.707107 -0.707107 
vn 8.65956e-17 0.707107 -0.707107 
vn 8.65956e-17 0.707107 -0.707107 
vn 8.65956e-17 0.707107 -0.707107 
f 201//201 202//202 203//203 
f 203//203 204//204 201//201 
o mesh36
v -0.745111 0.01651 0.000309301 
v -0.745111 0.01651 -0.0352507 
v -0.747651 0.01905 -0.0327107 
v -0.747651 0.01905 0.000309301 
vn 0.707107 0.707107 1.28781e-16 
vn 0.707107 0.707107 1.28781e-16 
vn 0.707107 0.707107 1.28781e-16 
vn 0.707107 0.707107 1.28781e-16 
f 205//205 206//206 207//207 
f 207//207 208//208 205//205 
o mesh37
v -1.12611 0.01651 -0.0327107 
v -1.12357 0.01905 -0.0327107 
v -1.12357 0.01651 -0.0352507 
vn -0.57735 0.57735 -0.57735 
vn -0.57735 0.57735 -0.57735 
vn -0.57735 0.57735 -0.57735 
f 209//209 210//210 211//211 
o mesh38
v -1.12357 0.01905 0.000309301 
v -0.747651 0.01905 0.000309301 
v -0.747651 0.01905 -0.0327107 
v -1.12357 0.01905 -0.0327107 
vn -0 1 1.82123e-16 
vn -0 1 1.82123e-16 
vn -0 1 1.82123e-16 
vn -0 1 1.82123e-16 
f 212//212 213//213 214//214 
f 214//214 215//215 212//212 
o mesh39
v -0.747651 0.01905 0.000309301 
v -0.747651 0.01651 0.0028493 
v -0.745111 0.01651 0.000309301 
vn 0.57735 0.57735 0.57735 
vn 0.57735 0.57735 0.57735 
vn 0.57735 0.57735 0.57735 
f 216//216 217//217 218//218 
o mesh40
v -1.12611 0.01651 -0.0327107 
v -1.12357 0.01651 -0.0352507 
v -1.12357 -0.00381 -0.0352507 
v -1.12611 -0.00381 -0.0327107 
vn -0.707107 1.28781e-16 -0.707107 
vn -0.707107 1.28781e-16 -0.707107 
vn -0.707107 1.28781e-16 -0.707107 
vn -0.707107 1.28781e-16 -0.707107 
f 219//219 220//220 221//221 
f 221//221 222//222 219//219 
o mesh41
v -1.12357 0.01905 0.000309301 
v -1.12357 0.01905 -0.0327107 
v -1.12611 0.01651 -0.0327107 
v -1.12611 0.01651 0.000309301 
vn -0.707107 0.707107 1.28781e-16 
vn -0.707107 0.707107 1.28781e-16 
vn -0.707107 0.707107 1.28781e-16 
vn -0.707107 0.707107 1.28781e-16 
f 223//223 224//224 225//225 
f 225//225 226//226 223//223 
o mesh42
v -1.12357 -0.00381 -0.0352507 
v -0.745111 -0.00381 -0.0352507 
v -0.747651 -0.00635 -0.0327107 
v -1.12357 -0.00635 -0.0327107 
vn 8.65956e-17 -0.707107 -0.707107 
vn 8.65956e-17 -0.707107 -0.707107 
vn 8.65956e-17 -0.707107 -0.707107 
vn 8.65956e-17 -0.707107 -0.707107 
f 227//227 228//228 229//229 
f 229//229 230//230 227//227 
o mesh43
v -0.747651 0.01905 0.000309301 
v -1.12357 0.01905 0.000309301 
v -1.12357 0.01651 0.0028493 
v -0.747651 0.01651 0.0028493 
vn 0 0.707107 0.707107 
vn 0 0.707107 0.707107 
vn 0 0.707107 0.707107 
vn 0 0.707107 0.707107 
f 231//231 232//232 233//233 
f 233//233 234//234 231//231 
o mesh44
v -0.745111 -0.00381 0.000309301 
v -0.747651 -0.00635 0.000309301 
v -0.747651 -0.00635 -0.0327107 
v -0.745111 -0.00381 -0.0352507 
vn 0.707107 -0.707107 -1.28781e-16 
vn 0.707107 -0.707107 -1.28781e-16 
vn 0.707107 -0.707107 -1.28781e-16 
vn 0.707107 -0.707107 -1.28781e-16 
f 235//235 236//236 237//237 
f 237//237 238//238 235//235 
o mesh45
v -0.745111 -0.00381 0.000309301 
v -0.745111 0.01651 0.000309301 
v -0.747651 0.01651 0.0028493 
v -0.747651 -0.00381 0.0028493 
vn 0.707107 0 0.707107 
vn 0.707107 0 0.707107 
vn 0.707107 0 0.707107 
vn 0.707107 0 0.707107 
f 239//239 240//240 241//241 
f 241//241 242//242 239//239 
o mesh46
v -1.12357 -0.00635 -0.0327107 
v -1.12611 -0.00381 -0.0327107 
v -1.12357 -0.00381 -0.0352507 
vn -0.57735 -0.57735 -0.57735 
vn -0.57735 -0.57735 -0.57735 
vn -0.57735 -0.57735 -0.57735 
f 243//243 244//244 245//245 
o mesh47
v -1.12357 -0.00635 0.000309301 
v -1.12357 -0.00635 -0.0327107 
v -0.747651 -0.00635 -0.0327107 
v -0.747651 -0.00635 0.000309301 
vn 0 -1 -1.82123e-16 
vn 0 -1 -1.82123e-16 
vn 0 -1 -1.82123e-16 
vn 0 -1 -1.82123e-16 
f 246//246 247//247 248//248 
f 248//248 249//249 246//246 
o mesh48
v -0.747651 -0.00635 0.000309301 
v -0.745111 -0.00381 0.000309301 
v -0.747651 -0.00381 0.0028493 
vn 0.57735 -0.57735 0.57735 
vn 0.57735 -0.57735 0.57735 
vn 0.57735 -0.57735 0.57735 
f 250//250 251//251 252//252 
o mesh49
v -1.12611 0.01651 0.000309301 
v -1.12611 0.01651 -0.0327107 
v -1.12611 -0.00381 -0.0327107 
v -1.12611 -0.00381 0.000309301 
vn -1 0 0 
vn -1 0 0 
vn -1 0 0 
vn -1 0 0 
f 253//253 254//254 255//255 
f 255//255 256//256 253//253 
o mesh50
v -0.747651 0.01651 0.0028493 
v -1.12357 0.01651 0.0028493 
v -1.12357 -0.00381 0.0028493 
v -0.747651 -0.00381 0.0028493 
vn 0 0 1 
vn 0 0 1 
vn 0 0 1 
vn 0 0 1 
f 257//257 258//258 259//259 
f 259//259 260//260 257//257 
o mesh51
v -1.12611 0.01651 0.000309301 
v -1.12357 0.01651 0.0028493 
v -1.12357 0.01905 0.000309301 
vn -0.57735 0.57735 0.57735 
vn -0.57735 0.57735 0.57735 
vn -0.57735 0.57735 0.57735 
f 261//261 262//262 263//263 
o mesh52
v -1.12611 -0.00381 -0.0327107 
v -1.12357 -0.00635 -0.0327107 
v -1.12357 -0.00635 0.000309301 
v -1.12611 -0.00381 0.000309301 
vn -0.707107 -0.707107 -1.28781e-16 
vn -0.707107 -0.707107 -1.28781e-16 
vn -0.707107 -0.707107 -1.28781e-16 
vn -0.707107 -0.707107 -1.28781e-16 
f 264//264 265//265 266//266 
f 266//266 267//267 264//264 
o mesh53
v -1.12357 -0.00381 0.0028493 
v -1.12357 0.01651 0.0028493 
v -1.12611 0.01651 0.000309301 
v -1.12611 -0.00381 0.000309301 
vn -0.707107 -0 0.707107 
vn -0.707107 -0 0.707107 
vn -0.707107 -0 0.707107 
vn -0.707107 -0 0.707107 
f 268//268 269//269 270//270 
f 270//270 271//271 268//268 
o mesh54
v -0.747651 -0.00381 0.0028493 
v -1.12357 -0.00381 0.0028493 
v -1.12357 -0.00635 0.000309301 
v -0.747651 -0.00635 0.000309301 
vn -0 -0.707107 0.707107 
vn -0 -0.707107 0.707107 
vn -0 -0.707107 0.707107 
vn -0 -0.707107 0.707107 
f 272//272 273//273 274//274 
f 274//274 275//275 272//272 
o mesh55
v -1.12611 -0.00381 0.000309301 
v -1.12357 -0.00635 0.000309301 
v -1.12357 -0.00381 0.0028493 
vn -0.57735 -0.57735 0.57735 
vn -0.57735 -0.57735 0.57735 
vn -0.57735 -0.57735 0.57735 
f 276//276 277//277 278//278 
